<svg width="1040" height="820" viewBox="0 0 1040 820" fill="none" xmlns="http://www.w3.org/2000/svg">
  <rect width="1040" height="820" fill="#0B1728"/>
  <path d="M0 0H1040V470C804 412 626 428 432 486C252 540 112 520 0 488V0Z" fill="#10273A"/>
  <rect x="104" y="145" width="832" height="520" rx="32" fill="#28170E"/>
  <rect x="160" y="210" width="720" height="275" rx="20" fill="#110C08"/>
  <rect x="214" y="470" width="612" height="86" rx="20" fill="#6E3F22"/>
  <rect x="280" y="420" width="480" height="78" rx="20" fill="#1A1A18"/>
  <path d="M330 462C425 412 614 410 710 462" stroke="#FF9F43" stroke-width="16" stroke-linecap="round" opacity=".6"/>
  <path d="M368 466C455 492 594 490 680 464" stroke="#E5E5E5" stroke-width="7" stroke-linecap="round" opacity=".28"/>
  <path d="M362 384C334 334 376 312 350 268M522 384C493 334 544 314 514 268M680 384C650 334 704 310 674 268" stroke="#E5E5E5" stroke-width="9" stroke-linecap="round" opacity=".2"/>
  <path d="M278 168V92M520 168V72M762 168V100" stroke="#B76225" stroke-width="8" stroke-linecap="round"/>
  <rect x="221" y="168" width="114" height="154" rx="57" fill="#FF9F43"/>
  <rect x="463" y="168" width="114" height="154" rx="57" fill="#FF9F43"/>
  <rect x="705" y="168" width="114" height="154" rx="57" fill="#FF9F43"/>
  <g opacity=".38" stroke="#FFE2B8" stroke-width="7">
    <path d="M223 226H333M223 284H333M465 226H575M465 284H575M707 226H817M707 284H817"/>
  </g>
  <ellipse cx="520" cy="700" rx="315" ry="54" fill="#FF9F43" opacity=".13"/>
</svg>
